HIERARCHY
ROOT Hips
{
	OFFSET -1.184550 -1.211971 92.605789
	CHANNELS 6 Xposition Yposition Zposition Zrotation Xrotation Yrotation
	JOINT Spine
	{
		OFFSET 0.001515 -0.129870 10.181618
		CHANNELS 3 Zrotation Xrotation Yrotation
		JOINT Spine1
		{
			OFFSET -0.000473 1.002433 10.083336
			CHANNELS 3 Zrotation Xrotation Yrotation
			JOINT Spine2
			{
				OFFSET -0.001247 1.374893 9.099792
				CHANNELS 3 Zrotation Xrotation Yrotation
				JOINT Neck
				{
					OFFSET -0.002285 2.518867 16.671295
					CHANNELS 3 Zrotation Xrotation Yrotation
					JOINT Head
					{
						OFFSET 0.004155 -1.683449 9.618149
						CHANNELS 3 Zrotation Xrotation Yrotation
						End Site
						{
							OFFSET 0.000013 0.000016 0.100006
						}
					}
				}
				JOINT LeftShoulder
				{
					OFFSET 4.567239 2.637735 10.944992
					CHANNELS 3 Zrotation Xrotation Yrotation
					JOINT LeftArm
					{
						OFFSET 9.498985 5.100961 -1.098145
						CHANNELS 3 Zrotation Xrotation Yrotation
						JOINT LeftForeArm
						{
							OFFSET 23.845413 5.963764 -13.075882
							CHANNELS 3 Zrotation Xrotation Yrotation
							JOINT LeftHand
							{
								OFFSET 23.388577 -4.235813 -15.412743
								CHANNELS 3 Zrotation Xrotation Yrotation
								End Site
								{
									OFFSET 0.049503 -0.027076 0.082558
								}
							}
						}
					}
				}
				JOINT RightShoulder
				{
					OFFSET -4.573166 2.621815 10.946350
					CHANNELS 3 Zrotation Xrotation Yrotation
					JOINT RightArm
					{
						OFFSET -9.496529 5.105540 -1.102051
						CHANNELS 3 Zrotation Xrotation Yrotation
						JOINT RightForeArm
						{
							OFFSET -23.845411 5.963770 -13.075897
							CHANNELS 3 Zrotation Xrotation Yrotation
							JOINT RightHand
							{
								OFFSET -23.388588 -4.235810 -15.412758
								CHANNELS 3 Zrotation Xrotation Yrotation
								End Site
								{
									OFFSET -0.049503 -0.027075 0.082558
								}
							}
						}
					}
				}
			}
		}
	}
	JOINT LeftUpLeg
	{
		OFFSET 8.204124 1.612786 -6.753006
		CHANNELS 3 Zrotation Xrotation Yrotation
		JOINT LeftLeg
		{
			OFFSET -0.005097 -0.291824 -44.370457
			CHANNELS 3 Zrotation Xrotation Yrotation
			JOINT LeftFoot
			{
				OFFSET -0.010815 2.974973 -44.428394
				CHANNELS 3 Zrotation Xrotation Yrotation
				JOINT LeftToeBase
				{
					OFFSET 0.017587 -10.712002 -8.726933
					CHANNELS 3 Zrotation Xrotation Yrotation
					End Site
					{
						OFFSET 0.000012 0.000016 0.099998
					}
				}
			}
		}
	}
	JOINT RightUpLeg
	{
		OFFSET -8.211432 1.584141 -6.750877
		CHANNELS 3 Zrotation Xrotation Yrotation
		JOINT RightLeg
		{
			OFFSET -0.005102 -0.293335 -44.370453
			CHANNELS 3 Zrotation Xrotation Yrotation
			JOINT RightFoot
			{
				OFFSET -0.010814 2.976581 -44.428185
				CHANNELS 3 Zrotation Xrotation Yrotation
				JOINT RightToeBase
				{
					OFFSET 0.017588 -10.711998 -8.726933
					CHANNELS 3 Zrotation Xrotation Yrotation
					End Site
					{
						OFFSET 0.000012 0.000016 0.099998
					}
				}
			}
		}
	}
}
MOTION
Frames: 14
Frame Time: 0.041667
-2.355291 -2.411008 185.211929 0.099978 -0.009283 0.007252 -0.000000 0.000002 0.000000 -0.000000 -0.000002 -0.000000 -0.000000 -0.000003 0.000000 -0.000000 0.000000 0.000000 0.000000 -0.000000 -0.000000 -0.099976 0.009319 -0.007252 -0.000008 -0.000018 0.000019 0.000012 -0.000019 -0.000005 0.000000 -0.000002 -0.000002 -0.099979 0.009311 -0.007204 0.000009 -0.000012 -0.000033 -0.000006 -0.000006 -0.000004 -0.000001 0.000000 -0.000006 -0.000202 0.000009 -0.000014 0.000202 -0.000027 0.000015 -0.000000 -0.000002 -0.000000 0.000000 -0.000001 0.000000 -0.000013 0.000008 -0.000005 0.000013 -0.000012 0.000001 0.000000 -0.000001 -0.000000 0.000000 0.000001 0.000000 
-2.099495 -3.143841 184.860138 0.099470 -0.008647 0.004843 -0.000001 0.000001 -0.000001 0.000000 -0.000001 0.000000 0.000000 -0.000001 0.000001 -0.000002 0.000001 0.000000 -1.611723 6.295810 14.205596 -135.522537 7.048026 -23.651921 12.345528 -23.004437 66.553800 -18.362072 -36.213130 30.552580 0.000002 -0.000001 0.000001 -128.801194 5.255764 35.968531 -25.088624 -36.778923 -82.636184 13.326321 -15.326989 -17.510653 0.000001 -0.000004 0.000000 -3.637259 -19.784138 -13.028889 2.213352 21.652241 -7.851233 0.000005 -0.000004 -0.000006 -0.000002 -0.000001 -0.000003 -0.246181 -0.405603 3.862867 1.819009 31.417398 -4.065908 -0.000002 0.000004 0.000001 -0.000002 0.000002 -0.000003 
-1.803330 -3.971113 184.509827 0.099112 -0.008530 0.004996 0.000004 0.000001 -0.000001 0.000006 -0.000002 -0.000000 0.000003 -0.000000 0.000000 -0.000000 -0.000001 0.000000 -1.115465 5.244133 11.863005 -130.553807 6.861658 -23.734137 11.902824 -20.090146 66.312852 -18.516049 -36.293119 30.237664 0.000004 -0.000003 0.000007 -124.767598 4.896430 36.181633 -22.977257 -33.400728 -80.891276 13.946259 -16.957048 -18.914448 0.000002 -0.000002 -0.000005 -3.897508 -21.019783 -12.956273 1.385863 17.706070 -6.527917 -0.000001 -0.000001 0.000001 -0.000000 -0.000002 0.000001 -0.326869 2.799593 2.683874 1.632229 29.107360 -3.993002 0.000000 0.000004 -0.000001 -0.000000 0.000001 -0.000001 
-1.427151 -4.989228 184.032227 0.099424 -0.008431 0.004856 0.000005 0.000000 -0.000000 0.000004 -0.000001 0.000000 0.000004 -0.000003 0.000000 0.000001 0.000002 0.000000 -1.022577 4.624911 12.300424 -134.127758 6.469308 -22.901973 12.623351 -20.317805 68.275152 -18.168035 -38.122062 31.976999 -0.000000 -0.000000 0.000001 -128.016542 4.593766 35.219133 -22.476556 -31.452270 -81.652255 14.992950 -19.120905 -19.994172 -0.000003 0.000001 -0.000006 -3.871601 -20.540674 -13.233667 1.406466 16.787408 -7.165776 0.000002 0.000001 0.000000 0.000000 0.000000 0.000002 -0.186528 0.103264 2.647068 1.779233 29.697475 -4.249540 0.000001 -0.000001 0.000001 0.000000 0.000006 -0.000001 
-0.968448 -6.255192 183.448380 0.099773 -0.008393 0.004771 -0.000001 -0.000001 0.000000 -0.000002 -0.000002 -0.000000 0.000002 -0.000001 0.000000 -0.000000 0.000000 -0.000001 -0.833021 3.704262 12.476016 -136.816872 6.824175 -24.180372 12.801927 -20.538264 68.954803 -18.842976 -39.151874 31.136473 0.000002 -0.000000 0.000001 -130.054192 4.878676 34.177341 -24.078186 -32.793968 -83.815041 14.600190 -18.607250 -20.118887 -0.000000 -0.000000 0.000001 -3.975460 -20.567380 -13.562208 2.004345 20.473192 -7.672299 -0.000002 -0.000009 0.000002 -0.000002 0.000002 -0.000001 -0.135615 -2.148352 4.238103 2.011078 32.447978 -4.330623 0.000000 0.000010 0.000000 -0.000003 0.000000 -0.000001 
-0.426988 -7.849829 182.769470 0.099751 -0.008393 0.004770 0.000000 -0.000001 -0.000000 -0.000000 -0.000002 -0.000000 0.000001 -0.000001 0.000000 -0.000000 0.000000 0.000000 -0.806074 3.582383 12.478866 -136.859519 6.813122 -24.222276 12.870265 -20.793089 69.059189 -18.575664 -38.746102 31.417108 0.000004 -0.000003 -0.000006 -129.891401 4.899512 34.210819 -24.422868 -33.169263 -84.163408 14.363002 -18.272221 -20.212997 0.000000 0.000000 -0.000002 -3.970174 -20.497256 -13.600705 2.039524 20.520115 -7.781341 0.000000 -0.000009 -0.000000 -0.000001 -0.000002 -0.000000 -0.129935 -2.262388 4.325161 1.974127 32.564030 -4.233589 -0.000001 0.000004 -0.000001 0.000003 0.000006 0.000001 
0.157774 -9.824966 182.087708 0.098778 -0.008520 0.005088 -0.000002 0.000002 0.000000 0.000000 0.000000 0.000000 0.000002 -0.000000 0.000000 0.000002 0.000002 0.000000 -0.733266 3.403760 11.961721 -134.877002 6.675679 -24.083189 12.616593 -20.457158 68.055438 -19.386654 -37.728896 29.425855 0.000002 -0.000001 -0.000001 -128.853472 4.594779 34.436195 -22.275033 -31.516296 -81.003209 14.919421 -18.679763 -19.339857 0.000005 0.000000 0.000001 -3.699536 -19.480550 -13.498022 1.644331 18.621848 -7.193010 0.000001 0.000003 -0.000002 -0.000001 0.000000 -0.000003 -0.258760 0.024023 3.632372 1.523374 30.681534 -3.500207 -0.000001 0.000004 0.000001 0.000002 -0.000001 -0.000001 
0.732065 -12.187479 181.520935 0.098996 -0.008682 0.005095 -0.000001 0.000000 0.000000 -0.000001 -0.000001 -0.000000 -0.000001 -0.000000 0.000000 -0.000001 -0.000001 -0.000001 -1.180164 4.971509 13.179878 -135.234959 7.930152 -25.045209 12.495752 -22.103706 67.422758 -17.615819 -33.274025 30.167559 -0.000003 -0.000006 -0.000007 -128.696487 5.876185 35.021324 -25.715102 -36.262441 -83.960100 12.058427 -13.704785 -17.926112 -0.000000 -0.000002 -0.000003 -3.450973 -18.711057 -13.255990 2.048174 19.998512 -8.092916 -0.000003 -0.000002 -0.000003 0.000001 -0.000000 -0.000003 -0.229727 -0.966564 4.259503 1.290470 29.965553 -3.048122 0.000000 0.000006 0.000000 -0.000001 -0.000000 -0.000001 
1.263846 -15.020120 181.101013 0.098008 -0.008928 0.005195 -0.000000 -0.000001 0.000000 0.000001 -0.000002 -0.000000 -0.000001 -0.000000 0.000000 -0.000001 0.000000 -0.000001 -0.657566 3.041061 11.991303 -140.623691 4.978346 -23.221217 13.909294 -24.281758 69.424160 -19.404178 -38.066673 29.494239 0.000002 -0.000001 -0.000004 -133.004383 3.496650 34.915196 -21.420943 -32.946999 -78.197975 16.911106 -20.786518 -17.453000 -0.000001 -0.000003 0.000003 -3.107007 -17.720533 -12.795367 1.787446 19.389297 -7.381721 -0.000000 -0.000002 -0.000002 -0.000005 -0.000001 0.000000 -0.408387 2.432594 3.525303 0.572496 28.400275 -1.437444 -0.000000 0.000003 0.000001 0.000000 0.000005 0.000001 
1.784980 -18.530287 180.691116 0.098203 -0.008846 0.005174 -0.000002 0.000001 -0.000001 0.000000 -0.000001 -0.000000 -0.000002 -0.000001 0.000000 0.000000 -0.000002 -0.000000 -0.928447 4.197708 12.292692 -138.968736 5.053869 -22.945672 14.150793 -24.382018 70.283179 -19.225347 -42.027663 31.604081 0.000003 -0.000000 0.000004 -131.774020 3.779052 36.203261 -21.491079 -33.071093 -78.391550 18.878498 -24.131618 -17.517781 0.000004 0.000000 -0.000002 -3.468438 -18.872397 -13.175370 1.606888 19.581724 -6.551672 -0.000000 -0.000002 -0.000001 -0.000002 0.000000 -0.000002 -0.464762 4.391651 3.060196 1.140796 27.650552 -2.969030 -0.000003 0.000001 -0.000001 -0.000001 0.000002 -0.000000 
2.303127 -22.770172 180.203644 0.096426 -0.009935 0.003837 0.000001 0.000004 -0.000001 0.000002 -0.000002 -0.000001 0.000003 -0.000001 0.000000 0.000002 0.000001 0.000000 0.985578 12.153952 -4.735742 -134.351214 3.506194 -27.891340 19.305115 -20.771181 82.530904 -23.340189 -37.613322 21.727513 0.000002 -0.000002 -0.000002 -131.392267 5.741243 33.420259 -17.811796 -35.901537 -74.579184 14.927296 -32.906434 -34.906979 0.000003 -0.000001 -0.000001 -1.537802 -25.791686 -3.889213 -0.275771 14.044827 1.865003 -0.000001 0.000003 0.000001 -0.000000 0.000004 0.000001 1.730366 12.279246 -6.169652 -0.234601 9.650292 3.332371 0.000001 0.000001 -0.000002 -0.000000 0.000006 0.000000 
2.838887 -27.578415 179.728546 0.096237 -0.009829 0.003898 0.000003 0.000006 -0.000001 0.000001 -0.000002 -0.000001 0.000001 -0.000000 -0.000001 0.000002 0.000000 0.000001 1.052263 11.548533 -5.309631 -134.491875 3.777035 -27.836296 18.211911 -19.780240 80.516258 -24.181549 -38.799436 21.227676 0.000004 -0.000000 -0.000001 -132.269687 5.677605 33.192336 -17.248330 -35.357475 -73.428577 15.523058 -33.597007 -34.024724 0.000000 0.000000 0.000002 -1.906421 -26.514040 -4.719268 -0.215660 14.274896 1.418513 -0.000000 0.000003 -0.000001 0.000000 -0.000005 0.000001 1.579841 11.705964 -5.830391 -0.191481 9.294194 2.984878 0.000001 -0.000001 0.000000 0.000000 0.000004 0.000000 
3.358794 -32.489269 179.395691 0.094921 -0.008110 0.004098 0.000001 -0.000000 -0.000000 -0.000000 -0.000001 -0.000000 0.000000 -0.000000 0.000001 -0.000001 -0.000001 0.000001 0.662540 8.345916 -4.627852 -128.120060 4.210871 -26.892318 17.714867 -26.655756 74.900018 -12.547141 -18.796860 29.129565 0.000001 0.000003 -0.000003 -123.411205 4.547075 33.836037 -17.415239 -36.920584 -70.418888 11.570722 -11.842621 -15.022060 0.000006 0.000001 -0.000002 -5.735992 -33.980085 -11.066453 -0.681098 15.274507 4.020170 -0.000002 0.000003 0.000002 -0.000004 -0.000002 0.000000 0.241166 7.253856 -1.252431 0.891042 19.133383 -3.763608 -0.000000 0.000006 -0.000003 -0.000000 -0.000002 -0.000000 
3.750217 -36.843010 179.268036 0.095170 -0.008130 0.003814 -0.000001 0.000001 0.000000 -0.000001 -0.000001 -0.000000 -0.000000 -0.000001 0.000000 0.000002 0.000000 0.000000 0.167022 1.829244 -5.189553 -129.040100 4.295984 -26.655068 16.015240 -24.396046 71.633508 -10.315994 -18.772794 41.413793 0.000003 0.000001 0.000006 -120.459743 4.790985 33.897116 -19.694808 -43.274296 -71.628829 16.134532 -44.405672 -36.928244 -0.000001 0.000000 0.000002 -5.332127 -36.566128 -9.537849 -1.101904 18.150960 5.009469 0.000001 0.000001 -0.000002 -0.000002 0.000002 0.000001 -0.313541 7.558967 1.458649 1.548137 27.687932 -4.023534 -0.000002 -0.000004 -0.000000 -0.000000 0.000006 0.000001 
